<?xml version="1.0" encoding="UTF-8"?><svg id="a" xmlns="http://www.w3.org/2000/svg" viewBox="0 0 429.04 80.03"><path d="m318.24,2.04c12.75-3.97,27.35-2.11,38.55,5.21,2.23,1.17,2.4,4.24.92,6.08-2.22,3.1-4.26,6.37-6.87,9.16-2.24,1.85-5.05-.06-7.17-1.13-5.72-2.87-12.66-4.44-18.84-2.16-2.52.9-5.28,3.27-4.56,6.23,1.91,2.86,5.56,3.47,8.64,4.32,9.07,1.97,18.53,3.89,26.31,9.27,11.24,8.33,10,27.65-1.48,35.25-11.09,7.39-25.47,6.55-37.91,3.65-5.6-1.85-11.64-3.54-16.14-7.5-2.01-3.56,2.08-6.53,3.91-9.2,2.37-2.37,4.17-7.22,8.25-6.21,3.09,1.29,5.89,3.23,9.08,4.32,5.61,2.16,11.79,2.11,17.7,1.57,2.65-.25,4.64-2.2,5.71-4.53-1.32-4.53-6.46-5.58-10.39-6.73-9.86-2.29-20.51-4.19-28.36-11.08-5.73-5-6.6-13.42-4.96-20.44,2.47-8.07,9.85-13.56,17.61-16.08Z" fill="#02aaff"/><path d="m197.93,7.3c-.19-2.15.64-4.57,3-5.08,4.26-.41,8.58-.26,12.86-.1,2.44.31,3.76,2.88,3.5,5.16.03,17.08,0,34.17.02,51.26,9.18.07,18.38-.11,27.56.07,2.13-.18,3.9,1.57,4.11,3.63.2,4.06.23,8.14-.03,12.2-.34,2.43-2.86,3.75-5.14,3.49-13.7,0-27.41.04-41.11-.01-2.6.3-5.09-1.83-4.74-4.53-.08-22.03-.02-44.06-.03-66.09Z" fill="#02aaff"/><path d="m266.13,2.65c2.34-1.16,5.1-.46,7.62-.65,2.72.23,5.86-.69,8.24,1.07,1.61,1.25,1.29,3.45,1.39,5.24-.07,21.69.03,43.39-.05,65.09.3,2.2-1.41,4.4-3.67,4.44-3.91.2-7.84.19-11.75,0-2.28-.02-4.13-2.22-3.78-4.46-.04-22.02,0-44.04-.03-66.06-.12-1.78.25-3.82,2.03-4.68Z" fill="#02aaff"/><path d="m368.65,11.3c.49-3.28-.9-9.02,4.01-9.21,16.69-.19,33.4,0,50.11-.09,1.83-.14,3.57.46,5.24,1.17,1.54,4.56.93,9.47.83,14.19-.01,2.25-1.85,3.96-4.05,4.05-5.44.32-10.9,0-16.35.13-.03,17.28.07,34.56-.04,51.83.23,2.22-1.45,4.48-3.77,4.47-3.91.19-7.84.2-11.74,0-2.29-.02-4-2.27-3.76-4.47-.08-17.28-.01-34.57-.03-51.85-5.76-.19-11.57.42-17.28-.29-4.26-1.12-3.16-6.63-3.17-9.93Z" fill="#02aaff"/><path d="m26.7,2.02c6.46-.04,12.92.07,19.38-.06,9.05,25.26,17.89,50.6,26.6,75.98-6.78.04-13.57-.06-20.35.06-1.61-4.34-3.06-8.74-4.5-13.14-7.51-.09-15.03.01-22.54-.06-1.56,4.32-3.11,8.66-4.43,13.07-6.95.15-13.9.07-20.86.04C8.99,52.65,17.79,27.32,26.7,2.02Zm3.22,45.96c4.51.03,9.03.02,13.55,0-2.22-7.03-4.9-13.93-6.84-21.05-2.61,6.89-4.33,14.08-6.71,21.05Z" fill="#fff"/><path d="m82.6,4.33c.14-.59.42-1.76.56-2.35,5.54.08,11.08.01,16.62.05,8.48,12.45,17.19,24.74,25.55,37.26.38-12.42.05-24.85.18-37.28,6.49.03,12.98-.03,19.48.04.03,25.27-.02,50.55.02,75.83-5.75.1-11.5.12-17.25-.02-8.36-12.53-17.02-24.87-25.42-37.38-.29,12.49-.04,24.98-.13,37.47-6.4,0-12.81-.03-19.21.02-.66-9.86.52-19.75-.32-29.6.84-6.98-.39-14,.26-20.99-.14-6,.32-12.03-.27-18.02.36-1.66.36-3.38-.07-5.03Z" fill="#fff"/><path d="m162.34,2c6.37.02,12.75.04,19.13-.01.06,25.33.02,50.66.02,75.99-6.4-.07-12.78-.04-19.17-.02,0-25.32-.03-50.64.02-75.96Z" fill="#fff"/></svg>